<?xml version="1.0" encoding="iso-8859-1"?>
<!-- Uploaded to: SVG Repo, www.svgrepo.com, Generator: SVG Repo Mixer Tools -->
<svg version="1.1" id="Capa_1" xmlns="http://www.w3.org/2000/svg" xmlns:xlink="http://www.w3.org/1999/xlink" 
	 viewBox="0 0 355.548 355.548" xml:space="preserve">
<g id="XMLID_487_">
	<path id="XMLID_488_" style="fill:#006DF0;" d="M307.935,267.021c-28.296,41.884-76.214,69.422-130.564,69.422
		c-86.962,0-157.458-70.496-157.458-157.458"/>
	<path id="XMLID_489_" style="fill:#0052B4;" d="M177.441,225.606c0,0-0.07,71.668-0.07,110.837
		c54.35,0,102.268-27.538,130.564-69.422L177.441,225.606z"/>
	<path id="XMLID_37_" style="fill:#006DF0;" d="M47.614,88.527c28.295-41.884,76.214-69.422,130.564-69.422
		c86.962,0,157.458,70.496,157.458,157.458"/>
	<path id="XMLID_490_" style="fill:#0052B4;" d="M177.108,19.122c-53.907,0.36-101.385,27.797-129.494,69.405l129.494,39.581V19.122
		z"/>
	<circle id="XMLID_491_" style="fill:#FFFFFF;" cx="177.441" cy="178.774" r="110"/>
	<rect id="XMLID_493_" x="162.441" y="113.774" style="fill:#FFDA44;" width="30" height="80"/>
	<rect id="XMLID_33_" x="162.441" y="163.774" style="fill:#FF9811;" width="60" height="30"/>
	<polygon id="XMLID_32_" style="fill:#0052B4;" points="104.808,212.227 0,242.196 26.181,135.504 	"/>
	<polygon id="XMLID_3_" style="fill:#0052B4;" points="250.741,143.322 355.548,113.352 329.368,220.044 	"/>
</g>
</svg>